<svg width="400" height="400" viewBox="0 0 400 400" fill="none" xmlns="http://www.w3.org/2000/svg">
<rect width="389" height="400" fill="#F3A940"/>
<path d="M42.52 249L47.8 219.08L26.24 173.43H47.47L60.12 201.81H60.67L82.78 173.43H104.89L67.49 219.08L62.21 249H42.52ZM77.3333 249L119.023 173.43H142.673L157.633 249H137.393L135.193 235.91H104.833L98.0133 249H77.3333ZM112.313 221.17H132.883L130.243 205.44C130.097 204.12 129.913 202.837 129.693 201.59C129.473 200.27 129.253 198.987 129.033 197.74C128.813 196.42 128.63 195.173 128.483 194C128.337 192.827 128.19 191.69 128.043 190.59H127.603C126.87 192.13 126.063 193.817 125.183 195.65C124.303 197.41 123.423 199.133 122.543 200.82C121.737 202.507 120.967 204.083 120.233 205.55L112.313 221.17ZM160.064 249L173.484 173.43H215.944C220.71 173.43 224.67 174.163 227.824 175.63C231.05 177.097 233.47 179.113 235.084 181.68C236.697 184.247 237.504 187.18 237.504 190.48C237.504 193.56 236.807 196.42 235.414 199.06C234.094 201.7 232.26 203.937 229.914 205.77C227.567 207.603 224.854 208.85 221.774 209.51L221.664 209.95C224.964 210.977 227.714 212.81 229.914 215.45C232.114 218.017 233.214 221.427 233.214 225.68C233.214 230.74 232.004 235.03 229.584 238.55C227.237 241.997 224.047 244.6 220.014 246.36C216.054 248.12 211.69 249 206.924 249H160.064ZM182.614 233.82H203.844C205.677 233.82 207.327 233.453 208.794 232.72C210.26 231.987 211.397 230.923 212.204 229.53C213.01 228.063 213.414 226.34 213.414 224.36C213.414 222.307 212.79 220.657 211.544 219.41C210.37 218.163 208.427 217.54 205.714 217.54H185.364L182.614 233.82ZM187.894 203.46H207.474C209.087 203.46 210.48 203.24 211.654 202.8C212.9 202.287 213.89 201.627 214.624 200.82C215.357 199.94 215.907 198.987 216.274 197.96C216.64 196.86 216.824 195.723 216.824 194.55C216.824 192.497 216.237 190.92 215.064 189.82C213.89 188.647 212.277 188.06 210.224 188.06H190.644L187.894 203.46ZM228.166 249L269.856 173.43H293.506L308.466 249H288.226L286.026 235.91H255.666L248.846 249H228.166ZM263.146 221.17H283.716L281.076 205.44C280.93 204.12 280.746 202.837 280.526 201.59C280.306 200.27 280.086 198.987 279.866 197.74C279.646 196.42 279.463 195.173 279.316 194C279.17 192.827 279.023 191.69 278.876 190.59H278.436C277.703 192.13 276.896 193.817 276.016 195.65C275.136 197.41 274.256 199.133 273.376 200.82C272.57 202.507 271.8 204.083 271.066 205.55L263.146 221.17ZM311.007 249L324.317 173.43H344.007L333.557 232.83H371.397L368.537 249H311.007Z" fill="white"/>
</svg>
